<?xml version="1.0" standalone="no"?>
<!DOCTYPE svg PUBLIC "-//W3C//DTD SVG 20010904//EN"
 "http://www.w3.org/TR/2001/REC-SVG-20010904/DTD/svg10.dtd">
<svg version="1.0" xmlns="http://www.w3.org/2000/svg"
 width="384.000000pt" height="108.000000pt" viewBox="0 0 384.000000 108.000000"
 preserveAspectRatio="xMidYMid meet">

<g transform="translate(0.000000,108.000000) scale(0.100000,-0.100000)"
fill="#000000" stroke="none">
<path d="M84 1062 c-11 -9 -31 -31 -42 -49 -22 -31 -22 -38 -22 -428 0 -418 0
-415 49 -468 56 -61 -66 -57 1850 -57 1966 1 1791 -6 1855 73 l31 39 3 383 c3
420 1 447 -50 495 l-31 30 -1811 0 c-1701 0 -1812 -1 -1832 -18z m3620 -31
c56 -37 55 -35 56 -454 l0 -387 -34 -38 -34 -37 -1764 -3 c-1696 -2 -1764 -1
-1798 16 -69 37 -70 43 -70 458 0 370 0 371 23 405 12 18 34 39 47 46 20 10
397 13 1785 13 1723 0 1761 -1 1789 -19z"/>
<path d="M2922 873 c3 -26 7 -28 55 -31 64 -4 64 -4 98 -148 40 -170 46 -188
68 -211 l20 -23 -27 0 c-29 0 -76 -39 -76 -64 0 -49 44 -85 94 -77 48 7 69 68
38 111 l-21 28 37 6 c20 3 92 6 159 6 118 0 149 8 126 31 -6 6 -52 14 -104 19
-143 14 -179 20 -179 31 0 5 55 9 129 9 91 0 131 4 138 13 6 6 25 54 43 104
46 130 55 124 -198 122 l-205 -1 -12 29 c-24 56 -52 73 -123 73 -63 0 -63 0
-60 -27z m573 -123 c-8 -13 -275 -13 -295 0 -10 6 37 10 143 10 103 0 156 -3
152 -10z m-35 -60 c0 -6 -48 -10 -125 -10 -77 0 -125 4 -125 10 0 6 48 10 125
10 77 0 125 -4 125 -10z"/>
<path d="M621 702 c-19 -36 -91 -223 -91 -237 0 -29 31 -15 46 20 14 33 17 35
64 35 48 0 51 -2 67 -35 16 -33 36 -45 46 -27 5 8 -79 231 -95 249 -14 18 -26
16 -37 -5z m44 -109 c6 -32 5 -33 -25 -33 -30 0 -31 1 -25 33 4 17 12 38 18
45 13 16 21 4 32 -45z"/>
<path d="M807 713 c-4 -3 -7 -64 -7 -135 l0 -128 61 0 c77 0 112 20 141 79 19
40 20 49 9 90 -13 51 -38 76 -91 91 -40 11 -103 13 -113 3z m124 -43 c34 -19
51 -65 39 -109 -13 -50 -41 -73 -87 -75 l-38 -1 -3 98 -3 97 36 0 c20 0 45 -5
56 -10z"/>
<path d="M1077 707 c-15 -11 -17 -28 -15 -132 l3 -120 73 0 c72 0 74 1 108 37
30 33 34 44 34 91 0 43 -5 59 -27 85 -39 46 -138 68 -176 39z m138 -52 c29
-28 34 -97 10 -131 -18 -26 -65 -47 -97 -42 -22 3 -23 7 -26 87 -2 46 -1 90 2
98 9 24 84 16 111 -12z"/>
<path d="M1427 714 c-16 -17 -5 -33 26 -36 l32 -3 1 -85 c1 -130 3 -140 19
-140 12 0 15 22 17 113 l3 112 38 3 c30 3 37 7 35 20 -3 14 -18 18 -84 20 -44
1 -83 0 -87 -4z"/>
<path d="M1674 706 c-35 -16 -74 -85 -74 -132 0 -51 40 -107 88 -124 37 -13
47 -13 84 0 53 19 80 56 86 118 10 111 -84 181 -184 138z m105 -36 c27 -14 44
-65 38 -107 -17 -101 -135 -114 -167 -17 -14 41 -8 71 21 107 22 29 72 37 108
17z"/>
<path d="M2073 705 c-47 -20 -73 -68 -73 -133 0 -48 4 -58 33 -87 19 -19 46
-37 62 -41 38 -9 99 7 103 28 3 14 -4 16 -50 11 -48 -5 -56 -3 -80 22 -39 39
-40 110 -2 149 22 22 36 26 80 26 30 0 54 4 54 8 0 32 -71 42 -127 17z"/>
<path d="M2508 714 c-5 -4 -8 -65 -8 -136 0 -118 2 -129 18 -126 12 2 18 15
20 48 2 25 7 49 12 53 14 15 46 -11 71 -57 14 -28 31 -46 41 -46 25 0 22 16
-12 72 l-30 49 20 21 c29 32 27 83 -6 104 -27 18 -114 31 -126 18z m100 -46
c22 -22 14 -58 -15 -69 -40 -15 -53 -5 -53 41 0 37 2 40 28 40 15 0 33 -5 40
-12z"/>
<path d="M2701 707 c-14 -18 -4 -27 30 -27 l28 0 3 -112 c3 -97 5 -113 20
-116 15 -3 18 9 20 110 l3 113 33 3 c34 3 44 25 16 36 -31 12 -141 6 -153 -7z"/>
<path d="M2276 595 c-25 -63 -46 -122 -46 -130 0 -29 31 -15 46 20 14 33 17
35 64 35 46 0 50 -2 66 -35 16 -35 44 -48 44 -20 0 8 -14 49 -30 92 -77 197
-80 198 -144 38z m89 -2 c6 -32 5 -33 -24 -33 -35 0 -35 0 -20 54 9 32 13 36
24 25 7 -8 16 -29 20 -46z"/>
<path d="M377 633 c-4 -3 -7 -17 -7 -29 0 -18 -6 -23 -32 -26 -22 -2 -34 -9
-36 -20 -3 -15 4 -18 32 -18 29 0 36 -4 36 -19 0 -53 27 -69 32 -18 3 28 7 33
38 37 22 3 35 10 35 20 0 10 -13 17 -35 20 -29 4 -36 10 -38 33 -3 26 -12 34
-25 20z"/>
<path d="M3442 437 c-45 -48 -17 -117 47 -117 46 0 71 24 71 68 0 65 -74 96
-118 49z"/>
</g>
</svg>
